<svg width="21" height="20" viewBox="0 0 21 20" fill="none" xmlns="http://www.w3.org/2000/svg">
<path d="M14.1862 3.87044C14.1862 6.00805 10.3158 10.6465 10.3158 10.6465C10.3158 10.6465 6.44531 6.00805 6.44531 3.87044C6.44531 1.73283 8.17814 0 10.3158 0C12.4534 0 14.1862 1.73283 14.1862 3.87044Z" fill="url(#paint0_radial_1_2507)"/>
<path d="M5.06709 4.87114C7.10212 5.531 10.3155 10.6463 10.3155 10.6463C10.3155 10.6463 4.70944 12.8948 2.67441 12.235C0.642151 11.5751 -0.46963 9.39035 0.19023 7.35532C0.85009 5.32306 3.03484 4.21128 5.06709 4.87114Z" fill="url(#paint1_radial_1_2507)"/>
<path d="M3.20024 13.8515C4.45619 12.1215 10.3145 10.6465 10.3145 10.6465C10.3145 10.6465 10.7221 16.6739 9.46336 18.404C8.20741 20.134 5.787 20.5167 4.05695 19.2607C2.32689 18.002 1.94428 15.5816 3.20024 13.8515Z" fill="url(#paint2_radial_1_2507)"/>
<path d="M11.1641 18.404C9.9054 16.6739 10.313 10.6465 10.313 10.6465C10.313 10.6465 16.1713 12.1215 17.4273 13.8515C18.6832 15.5816 18.3006 18.002 16.5705 19.2607C14.8405 20.5167 12.4201 20.134 11.1641 18.404Z" fill="url(#paint3_radial_1_2507)"/>
<path d="M17.9536 12.2347C15.9185 12.8946 10.3125 10.6461 10.3125 10.6461C10.3125 10.6461 13.5259 5.53075 15.5609 4.87089C17.5931 4.21103 19.7779 5.32282 20.4377 7.35507C21.0976 9.3901 19.9858 11.5749 17.9536 12.2347Z" fill="url(#paint4_radial_1_2507)"/>
<path d="M11.5251 6.38509C11.5251 7.05327 10.3163 10.6465 10.3163 10.6465C10.3163 10.6465 9.10746 7.05327 9.10746 6.38509C9.10746 5.71691 9.64811 5.17627 10.3163 5.17627C10.9845 5.17627 11.5251 5.71691 11.5251 6.38509ZM6.63715 8.17891C7.27483 8.38685 10.3163 10.6465 10.3163 10.6465C10.3163 10.6465 6.52625 10.688 5.89134 10.4801C5.25366 10.2749 4.90709 9.59012 5.11503 8.95522C5.3202 8.32031 6.00224 7.97374 6.63715 8.17891ZM6.834 13.3829C7.22492 12.8423 10.3163 10.6465 10.3163 10.6465C10.3163 10.6465 9.18232 14.2646 8.7914 14.8052C8.3977 15.3459 7.6408 15.4651 7.10016 15.0714C6.55952 14.6805 6.4403 13.9236 6.834 13.3829ZM11.8412 14.8052C11.4502 14.2646 10.3163 10.6465 10.3163 10.6465C10.3163 10.6465 13.4076 12.8423 13.7986 13.3829C14.1923 13.9236 14.073 14.6805 13.5324 15.0714C12.9918 15.4651 12.2349 15.3459 11.8412 14.8052ZM14.7412 10.4801C14.1063 10.688 10.3163 10.6465 10.3163 10.6465C10.3163 10.6465 13.3577 8.38685 13.9954 8.17891C14.6303 7.97374 15.3124 8.32031 15.5175 8.95522C15.7255 9.59012 15.3789 10.2749 14.7412 10.4801Z" fill="#149990"/>
<defs>
<radialGradient id="paint0_radial_1_2507" cx="0" cy="0" r="1" gradientUnits="userSpaceOnUse" gradientTransform="translate(10.3493 10.5453) scale(10.6369)">
<stop stop-color="#30B9B3"/>
<stop offset="1" stop-color="#81E5E1"/>
</radialGradient>
<radialGradient id="paint1_radial_1_2507" cx="0" cy="0" r="1" gradientUnits="userSpaceOnUse" gradientTransform="translate(5.20243 12.2833) scale(14.1747 7.66839)">
<stop stop-color="#30B9B3"/>
<stop offset="1" stop-color="#81E5E1"/>
</radialGradient>
<radialGradient id="paint2_radial_1_2507" cx="0" cy="0" r="1" gradientUnits="userSpaceOnUse" gradientTransform="translate(6.45351 19.9111) scale(10.8783 9.3451)">
<stop stop-color="#30B9B3"/>
<stop offset="1" stop-color="#81E5E1"/>
</radialGradient>
<radialGradient id="paint3_radial_1_2507" cx="0" cy="0" r="1" gradientUnits="userSpaceOnUse" gradientTransform="translate(14.2426 19.9111) scale(10.8783 9.3451)">
<stop stop-color="#30B9B3"/>
<stop offset="1" stop-color="#81E5E1"/>
</radialGradient>
<radialGradient id="paint4_radial_1_2507" cx="0" cy="0" r="1" gradientUnits="userSpaceOnUse" gradientTransform="translate(15.5149 12.283) scale(14.1747 7.66839)">
<stop stop-color="#30B9B3"/>
<stop offset="1" stop-color="#81E5E1"/>
</radialGradient>
</defs>
</svg>
